<svg width="120.06mm" height="197.3mm" version="1.1" viewBox="0 0 120.06 197.3" xmlns="http://www.w3.org/2000/svg">
 <path d="m33.823 0c-18.738 5.0133e-15 -33.823 15.085-33.823 33.823v129.65c5.0133e-15 18.738 15.085 33.823 33.823 33.823h52.419c18.738 0 33.823-15.085 33.823-33.823v-129.65c0-18.738-15.085-33.823-33.823-33.823h-52.419zm-4.8338 20c4.9799 0 8.9891 4.0092 8.9891 8.9891v19.761c0 4.9799-4.0092 8.9891-8.9891 8.9891s-8.9891-4.0092-8.9891-8.9891v-19.761c0-4.9799 4.0092-8.9891 8.9891-8.9891zm62.086 119.56c4.9799 0 8.9891 4.0092 8.9891 8.9891v19.761c0 4.9799-4.0092 8.9891-8.9891 8.9891s-8.9891-4.0092-8.9891-8.9891v-19.761c0-4.9799 4.0092-8.9891 8.9891-8.9891z" fill="#fff" stroke-width="1.3229"/>
</svg>
